<?xml version="1.0" encoding="iso-8859-1"?>
<!-- Generator: Adobe Illustrator 22.1.0, SVG Export Plug-In . SVG Version: 6.00 Build 0)  -->
<svg fill="#FFFFFF" version="1.1" id="Layer_1" xmlns="http://www.w3.org/2000/svg" xmlns:xlink="http://www.w3.org/1999/xlink" x="0px" y="0px"
	 viewBox="0 0 48 48" style="enable-background:new 0 0 48 48;" xml:space="preserve">
<path d="M24,4C12.972,4,4,12.972,4,24s8.972,20,20,20s20-8.972,20-20S35.028,4,24,4z M32.561,20.561l-10,10
	C22.268,30.854,21.884,31,21.5,31s-0.768-0.146-1.061-0.439l-5-5c-0.586-0.586-0.586-1.535,0-2.121s1.535-0.586,2.121,0l3.939,3.939
	l8.939-8.939c0.586-0.586,1.535-0.586,2.121,0S33.146,19.975,32.561,20.561z"/>
</svg>