<svg width="365" height="357" viewBox="0 0 365 357" fill="none" xmlns="http://www.w3.org/2000/svg">
<path d="M178.5 0L333.086 89.25V267.75L178.5 357L23.9145 267.75V89.25L178.5 0Z" fill="url(#paint0_linear_2_21)"/>
<path d="M73.0106 113.215L177.963 52.0012L283.453 112.286L283.989 233.785L179.037 294.999L73.5472 234.714L73.0106 113.215Z" fill="url(#paint1_linear_2_21)"/>
<path d="M122.943 136.255L185.198 100.312L247.453 136.255L247.453 208.141L185.198 244.083L122.943 208.141L122.943 136.255Z" fill="url(#paint2_linear_2_21)"/>
<g filter="url(#filter0_d_2_21)">
<rect x="220" y="17" width="134" height="150" rx="10" fill="url(#paint3_linear_2_21)"/>
</g>
<path d="M260.653 142V48.9091H322.29V65.1364H280.335V87.3182H318.199V103.545H280.335V142H260.653Z" fill="white"/>
<defs>
<filter id="filter0_d_2_21" x="189.2" y="10.2" width="175.6" height="191.6" filterUnits="userSpaceOnUse" color-interpolation-filters="sRGB">
<feFlood flood-opacity="0" result="BackgroundImageFix"/>
<feColorMatrix in="SourceAlpha" type="matrix" values="0 0 0 0 0 0 0 0 0 0 0 0 0 0 0 0 0 0 127 0" result="hardAlpha"/>
<feMorphology radius="4" operator="dilate" in="SourceAlpha" result="effect1_dropShadow_2_21"/>
<feOffset dx="-10" dy="14"/>
<feGaussianBlur stdDeviation="8.4"/>
<feComposite in2="hardAlpha" operator="out"/>
<feColorMatrix type="matrix" values="0 0 0 0 0 0 0 0 0 0 0 0 0 0 0 0 0 0 0.25 0"/>
<feBlend mode="normal" in2="BackgroundImageFix" result="effect1_dropShadow_2_21"/>
<feBlend mode="normal" in="SourceGraphic" in2="effect1_dropShadow_2_21" result="shape"/>
</filter>
<linearGradient id="paint0_linear_2_21" x1="99.5799" y1="41.7326" x2="268.99" y2="316.92" gradientUnits="userSpaceOnUse">
<stop stop-color="#055791"/>
<stop offset="1" stop-color="#0B324E"/>
</linearGradient>
<linearGradient id="paint1_linear_2_21" x1="71.02" y1="173.95" x2="245" y2="253.5" gradientUnits="userSpaceOnUse">
<stop stop-color="#032741"/>
<stop offset="1"/>
</linearGradient>
<linearGradient id="paint2_linear_2_21" x1="121.606" y1="172.183" x2="224.333" y2="219.703" gradientUnits="userSpaceOnUse">
<stop stop-color="#297AB4"/>
<stop offset="1"/>
</linearGradient>
<linearGradient id="paint3_linear_2_21" x1="287" y1="17" x2="333" y2="167" gradientUnits="userSpaceOnUse">
<stop stop-color="#0A3858"/>
<stop offset="1" stop-color="#1679BE"/>
</linearGradient>
</defs>
</svg>
